<?xml version="1.0" standalone="no"?><svg xmlns="http://www.w3.org/2000/svg" viewBox="0 0 1440 320"><path fill="#f3f4f5" fill-opacity="1" d="M0,160L40,149.3C80,139,160,117,240,112C320,107,400,117,480,144C560,171,640,213,720,197.3C800,181,880,107,960,96C1040,85,1120,139,1200,186.7C1280,235,1360,277,1400,298.7L1440,320L1440,320L1400,320C1360,320,1280,320,1200,320C1120,320,1040,320,960,320C880,320,800,320,720,320C640,320,560,320,480,320C400,320,320,320,240,320C160,320,80,320,40,320L0,320Z"></path></svg>