<?xml version="1.0" standalone="no"?><svg xmlns="http://www.w3.org/2000/svg" viewBox="0 0 1440 320"><path fill="#f3f4f5" fill-opacity="1" d="M0,192L34.3,170.7C68.6,149,137,107,206,112C274.3,117,343,171,411,192C480,213,549,203,617,181.3C685.7,160,754,128,823,101.3C891.4,75,960,53,1029,69.3C1097.1,85,1166,139,1234,160C1302.9,181,1371,171,1406,165.3L1440,160L1440,0L1405.7,0C1371.4,0,1303,0,1234,0C1165.7,0,1097,0,1029,0C960,0,891,0,823,0C754.3,0,686,0,617,0C548.6,0,480,0,411,0C342.9,0,274,0,206,0C137.1,0,69,0,34,0L0,0Z"></path></svg>