<?xml version="1.0" standalone="no"?><svg xmlns="http://www.w3.org/2000/svg" viewBox="0 0 1440 320"><path fill="#f3f4f5" fill-opacity="1" d="M0,320L40,288C80,256,160,192,240,144C320,96,400,64,480,85.3C560,107,640,181,720,176C800,171,880,85,960,74.7C1040,64,1120,128,1200,165.3C1280,203,1360,213,1400,218.7L1440,224L1440,320L1400,320C1360,320,1280,320,1200,320C1120,320,1040,320,960,320C880,320,800,320,720,320C640,320,560,320,480,320C400,320,320,320,240,320C160,320,80,320,40,320L0,320Z"></path></svg>